<svg xmlns="http://www.w3.org/2000/svg">
  <defs>
    <symbol id="back-arrow" viewBox="0 0 24 25" xmlns="http://www.w3.org/2000/svg">
      <path d="M20 11.5H7.83L13.42 5.91L12 4.5L4 12.5L12 20.5L13.41 19.09L7.83 13.5H20V11.5Z" />
    </symbol>
    <symbol id="camera-icon" viewBox="0 0 24 20" xmlns="http://www.w3.org/2000/svg">
      <path d="M20.75 2.78125H17.6L16.0469 0.451563C15.9872 0.360981 15.906 0.286596 15.8106 0.235061C15.7152 0.183526 15.6085 0.156449 15.5 0.15625H8.5C8.39154 0.156449 8.28482 0.183526 8.18939 0.235061C8.09395 0.286596 8.01278 0.360981 7.95312 0.451563L6.4 2.78125H3.25C2.61271 2.78413 2.00234 3.03857 1.5517 3.4892C1.10107 3.93984 0.846627 4.55021 0.84375 5.1875V17.4375C0.846627 18.0748 1.10107 18.6852 1.5517 19.1358C2.00234 19.5864 2.61271 19.8409 3.25 19.8438H20.75C21.3873 19.8409 21.9977 19.5864 22.4483 19.1358C22.8989 18.6852 23.1534 18.0748 23.1562 17.4375V5.1875C23.1534 4.55021 22.8989 3.93984 22.4483 3.4892C21.9977 3.03857 21.3873 2.78413 20.75 2.78125ZM21.8438 17.4375C21.8438 17.7276 21.7285 18.0058 21.5234 18.2109C21.3183 18.416 21.0401 18.5312 20.75 18.5312H3.25C2.95992 18.5312 2.68172 18.416 2.4766 18.2109C2.27148 18.0058 2.15625 17.7276 2.15625 17.4375V5.1875C2.15625 4.89742 2.27148 4.61922 2.4766 4.4141C2.68172 4.20898 2.95992 4.09375 3.25 4.09375H6.75C6.85846 4.09355 6.96518 4.06647 7.06061 4.01494C7.15605 3.9634 7.23722 3.88902 7.29688 3.79844L8.85 1.46875H15.15L16.7031 3.79844C16.7628 3.88902 16.844 3.9634 16.9394 4.01494C17.0348 4.06647 17.1415 4.09355 17.25 4.09375H20.75C21.0401 4.09375 21.3183 4.20898 21.5234 4.4141C21.7285 4.61922 21.8438 4.89742 21.8438 5.1875V17.4375ZM12 6.28125C11.0914 6.28125 10.2033 6.55067 9.44785 7.05544C8.69241 7.5602 8.10362 8.27765 7.75593 9.11705C7.40824 9.95645 7.31727 10.8801 7.49452 11.7712C7.67177 12.6623 8.10928 13.4808 8.75173 14.1233C9.39418 14.7657 10.2127 15.2032 11.1038 15.3805C11.9949 15.5577 12.9186 15.4668 13.758 15.1191C14.5974 14.7714 15.3148 14.1826 15.8196 13.4272C16.3243 12.6717 16.5938 11.7836 16.5938 10.875C16.5938 9.65666 16.1098 8.48822 15.2483 7.62673C14.3868 6.76523 13.2183 6.28125 12 6.28125ZM12 14.1562C11.351 14.1562 10.7166 13.9638 10.177 13.6033C9.63744 13.2427 9.21687 12.7302 8.96852 12.1307C8.72017 11.5311 8.65519 10.8714 8.7818 10.2349C8.90841 9.59836 9.22091 9.0137 9.67981 8.55481C10.1387 8.09591 10.7234 7.78341 11.3599 7.6568C11.9964 7.53019 12.6561 7.59517 13.2557 7.84352C13.8552 8.09187 14.3677 8.51244 14.7283 9.05204C15.0888 9.59163 15.2812 10.226 15.2812 10.875C15.2784 11.7444 14.9317 12.5773 14.317 13.192C13.7023 13.8067 12.8694 14.1534 12 14.1562Z"/>
    </symbol>
    <symbol id="edit-icon" viewBox="0 0 26 26" xmlns="http://www.w3.org/2000/svg">
      <path d="M18.6445 1.8749L16.0611 4.45824H3.45833V22.5416H21.5417V9.93878L24.125 7.35544V23.8332C24.125 24.1758 23.9889 24.5043 23.7467 24.7466C23.5044 24.9888 23.1759 25.1249 22.8333 25.1249H2.16667C1.8241 25.1249 1.49555 24.9888 1.25332 24.7466C1.01109 24.5043 0.875 24.1758 0.875 23.8332V3.16657C0.875 2.824 1.01109 2.49546 1.25332 2.25322C1.49555 2.01099 1.8241 1.8749 2.16667 1.8749H18.6445ZM23.4598 0.712402L25.2875 2.5414L13.4145 14.4144L11.5907 14.4183L11.5881 12.588L23.4598 0.712402Z" />
    </symbol>
  </defs>
</svg>

